<?xml version="1.0" encoding="UTF-8" standalone="no"?>
<!DOCTYPE svg PUBLIC "-//W3C//DTD SVG 1.1//EN" "http://www.w3.org/Graphics/SVG/1.1/DTD/svg11.dtd">
<svg width="100%" height="100%" viewBox="0 0 512 512" version="1.1" xmlns="http://www.w3.org/2000/svg" xmlns:xlink="http://www.w3.org/1999/xlink" xml:space="preserve" xmlns:serif="http://www.serif.com/" style="fill-rule:evenodd;clip-rule:evenodd;stroke-linejoin:round;stroke-miterlimit:2;">
    <rect x="0" y="0" width="512" height="512" style="fill:white;"/>
    <g transform="matrix(1,0,0,1,6.4,-38.4)">
        <g transform="matrix(12.8,0,0,12.0471,0,17.3176)">
            <g transform="matrix(1,0,0,1.0625,0,-2.5)">
                <circle cx="20" cy="37" r="3"/>
            </g>
            <g transform="matrix(1,0,0,1.0625,0,-30.125)">
                <circle cx="20" cy="37" r="3"/>
            </g>
            <g transform="matrix(1,0,0,0.986607,0,0.308036)">
                <path d="M17,9L17,37L23,37L23,9L17,9"/>
            </g>
        </g>
        <g transform="matrix(12.8,0,0,12.8,0,0)">
            <g transform="matrix(0.428571,0,0,0.428571,25.2857,17.4286)">
                <circle cx="7.5" cy="9.5" r="3.5"/>
            </g>
            <g transform="matrix(0.428571,0,0,0.428571,8.28571,22.4286)">
                <circle cx="7.5" cy="9.5" r="3.5"/>
            </g>
            <path d="M28.068,20.063L28.955,22.93L11.878,27.952L11.097,25.055"/>
        </g>
        <g transform="matrix(12.8,0,0,12.8,0,64)">
            <g transform="matrix(0.428571,0,0,0.428571,25.2857,17.4286)">
                <circle cx="7.5" cy="9.5" r="3.5"/>
            </g>
            <g transform="matrix(0.428571,0,0,0.428571,8.28571,22.4286)">
                <circle cx="7.5" cy="9.5" r="3.5"/>
            </g>
            <path d="M28.068,20.063L28.955,22.93L11.878,27.952L11.097,25.055"/>
        </g>
        <g transform="matrix(12.4,0,0,9.14286,1.6,34.7429)">
            <g transform="matrix(0.737327,0,0,1,27.8894,8.88178e-16)">
                <circle cx="7.5" cy="9.5" r="3.5"/>
            </g>
            <g transform="matrix(0.737327,0,0,1,1.05069,8.88178e-16)">
                <circle cx="7.5" cy="9.5" r="3.5"/>
            </g>
            <g transform="matrix(1.07355,0,0,1,-1.47097,8.88178e-16)">
                <rect x="7.5" y="6" width="25" height="7"/>
            </g>
        </g>
    </g>
</svg>
