<?xml version="1.0" encoding="UTF-8" standalone="no"?>
<!DOCTYPE svg PUBLIC "-//W3C//DTD SVG 1.1//EN" "http://www.w3.org/Graphics/SVG/1.1/DTD/svg11.dtd">
<svg width="100%" height="100%" viewBox="0 0 64 67" version="1.1" xmlns="http://www.w3.org/2000/svg" xmlns:xlink="http://www.w3.org/1999/xlink" xml:space="preserve" xmlns:serif="http://www.serif.com/" style="fill-rule:evenodd;clip-rule:evenodd;stroke-linejoin:round;stroke-miterlimit:2;">
    <g transform="matrix(1,0,0,1,0.550186,1.00012)">
        <path d="M5.45,10C2.688,10 0.45,7.761 0.45,5C0.45,2.238 2.688,-0 5.45,-0L32.45,-0L57.45,-0C60.211,-0 62.45,2.238 62.45,5C62.45,7.761 60.211,10 57.45,10L38.45,10L38.45,29.107L48.586,26.126C48.859,26.044 49.149,26 49.45,26C51.107,26 52.45,27.343 52.45,29C52.45,30.34 51.572,31.474 50.36,31.86C50.319,31.872 50.277,31.884 50.236,31.896L38.45,35.362L38.45,39.107L48.586,36.126C48.859,36.044 49.149,36 49.45,36C51.107,36 52.45,37.343 52.45,39C52.45,40.34 51.572,41.474 50.36,41.86C50.319,41.872 50.277,41.884 50.236,41.896L38.45,45.362L38.45,58C38.45,61.314 35.764,64 32.45,64C29.136,64 26.45,61.314 26.45,58L26.45,48.891L16.389,51.85C16.328,51.869 16.267,51.887 16.206,51.904C15.964,51.967 15.711,52 15.45,52C13.793,52 12.45,50.657 12.45,49C12.45,47.622 13.378,46.462 14.644,46.11L26.45,42.637L26.45,38.891L16.389,41.85C16.328,41.869 16.267,41.887 16.206,41.904C15.964,41.967 15.711,42 15.45,42C13.793,42 12.45,40.657 12.45,39C12.45,37.622 13.378,36.462 14.644,36.11L26.45,32.637L26.45,10L5.45,10Z"/>
        <path d="M5.45,11.025C2.122,11.025 -0.575,8.327 -0.575,5C-0.575,1.672 2.122,-1.025 5.45,-1.025L32.45,-1.025L57.45,-1.025C60.777,-1.025 63.475,1.672 63.475,5C63.475,8.327 60.777,11.025 57.45,11.025L39.475,11.025L39.475,27.738C39.475,27.738 48.297,25.143 48.291,25.144C48.658,25.034 49.047,24.975 49.45,24.975C51.673,24.975 53.475,26.777 53.475,29C53.475,30.797 52.296,32.319 50.67,32.836C50.667,32.838 50.663,32.839 50.66,32.84C50.614,32.854 50.568,32.867 50.522,32.88L39.475,36.129L39.475,37.738C39.475,37.738 48.297,35.143 48.291,35.144C48.658,35.034 49.047,34.975 49.45,34.975C51.673,34.975 53.475,36.777 53.475,39C53.475,40.797 52.296,42.319 50.67,42.836C50.667,42.838 50.663,42.839 50.66,42.84C50.614,42.854 50.568,42.867 50.522,42.88C50.522,42.88 39.475,46.129 39.475,46.129L39.475,58C39.475,61.88 36.33,65.025 32.45,65.025C28.57,65.025 25.425,61.88 25.425,58L25.425,50.261C25.425,50.261 16.683,52.832 16.683,52.832C16.616,52.853 16.548,52.873 16.479,52.892C16.474,52.893 16.469,52.895 16.463,52.896C16.14,52.98 15.8,53.025 15.45,53.025C13.227,53.025 11.425,51.223 11.425,49C11.425,47.156 12.666,45.602 14.358,45.125C14.358,45.125 25.425,41.87 25.425,41.87L25.425,40.261C25.425,40.261 16.683,42.832 16.683,42.832C16.616,42.853 16.548,42.873 16.479,42.892C16.474,42.893 16.469,42.895 16.463,42.896C16.14,42.98 15.8,43.025 15.45,43.025C13.227,43.025 11.425,41.223 11.425,39C11.425,37.156 12.666,35.602 14.358,35.125L25.425,31.87C25.425,31.87 25.425,11.025 25.425,11.025L5.45,11.025ZM5.45,10L26.45,10L26.45,32.637L14.644,36.11C13.378,36.462 12.45,37.622 12.45,39C12.45,40.657 13.793,42 15.45,42C15.711,42 15.964,41.967 16.206,41.904C16.267,41.887 16.328,41.869 16.389,41.85L26.45,38.891L26.45,42.637L14.644,46.11C13.378,46.462 12.45,47.622 12.45,49C12.45,50.657 13.793,52 15.45,52C15.711,52 15.964,51.967 16.206,51.904C16.267,51.887 16.328,51.869 16.389,51.85L26.45,48.891L26.45,58C26.45,61.314 29.136,64 32.45,64C35.764,64 38.45,61.314 38.45,58L38.45,45.362L50.236,41.896C50.277,41.884 50.319,41.872 50.36,41.86C51.572,41.474 52.45,40.34 52.45,39C52.45,37.343 51.107,36 49.45,36C49.149,36 48.859,36.044 48.586,36.126L38.45,39.107L38.45,35.362L50.236,31.896C50.277,31.884 50.319,31.872 50.36,31.86C51.572,31.474 52.45,30.34 52.45,29C52.45,27.343 51.107,26 49.45,26C49.149,26 48.859,26.044 48.586,26.126L38.45,29.107L38.45,10L57.45,10C60.211,10 62.45,7.761 62.45,5C62.45,2.238 60.211,-0 57.45,-0L32.45,-0L5.45,-0C2.688,-0 0.45,2.238 0.45,5C0.45,7.761 2.688,10 5.45,10Z" style="fill:rgb(255,0,0);"/>
    </g>
</svg>
