<?xml version="1.0" encoding="UTF-8" standalone="no"?>
<!DOCTYPE svg PUBLIC "-//W3C//DTD SVG 1.1//EN" "http://www.w3.org/Graphics/SVG/1.1/DTD/svg11.dtd">
<svg width="100%" height="100%" viewBox="0 0 512 512" version="1.1" xmlns="http://www.w3.org/2000/svg" xmlns:xlink="http://www.w3.org/1999/xlink" xml:space="preserve" xmlns:serif="http://www.serif.com/" style="fill-rule:evenodd;clip-rule:evenodd;stroke-linejoin:round;stroke-miterlimit:2;">
    <g transform="matrix(12.8,0,0,12.8,0,0)">
        <path fill="#FC891E" d="M33.019,4C34.666,4.01 36,5.351 36,7C36,8.656 34.656,10 33,10L23,10L23,18.618C23,18.618 28.195,17.002 28.49,17L28.51,17C29.333,17.005 30,17.675 30,18.5C30,19.325 29.333,19.995 28.51,20L28.5,20L23,21.618L23,23.618C23,23.618 28.195,22.002 28.49,22L28.51,22C29.333,22.005 30,22.675 30,23.5C30,24.325 29.333,24.995 28.51,25L28.5,25L23,26.618L23,34C23,35.656 21.656,37 20,37C18.344,37 17,35.656 17,34C17,33.761 17.066,28.363 17.066,28.363C17.066,28.363 11.799,30 11.5,30C10.672,30 10,29.328 10,28.5C10,27.672 10.672,27 11.5,27L17.057,25.366L17.051,23.367C17.051,23.367 11.799,25 11.5,25C10.672,25 10,24.328 10,23.5C10,22.672 10.672,22 11.5,22L17.042,20.37L17.011,10L7,10C5.344,10 4,8.656 4,7C4,5.344 5.344,4 7,4L33,4L33.019,4Z"/>
    </g>
</svg>
